<svg xmlns="http://www.w3.org/2000/svg" width="128" height="128" viewBox="0 0 128 128" role="img" aria-label="Kitana (stylized)">
  <defs>
    <linearGradient id="g" x1="0" y1="0" x2="1" y2="1">
      <stop offset="0" stop-color="#0b1220"/>
      <stop offset="1" stop-color="#1f2937"/>
    </linearGradient>
  </defs>
  <rect x="8" y="8" width="112" height="112" rx="28" fill="url(#g)"/>
  <path d="M64 28c-12 0-20 6-20 18 0 6 1 9 1 9l-4 3 6 6c3 3 5 1 5 1s4 2 8 2 8-2 8-2 2 2 5-1l6-6-4-3s1-3 1-9c0-12-8-18-20-18Z" fill="#2dd4bf" opacity="0.55"/>
  <path d="M64 32c-12 0-20 7-20 20 0 8 2 15 5 19" fill="none" stroke="#e5e7eb" stroke-width="3" stroke-linecap="round" opacity="0.35"/>
  <text x="64" y="22" text-anchor="middle" font-size="8" font-family="ui-sans-serif, system-ui" fill="#a5f3fc" opacity="0.95">Kitana</text>
</svg>